<svg width="178" height="60" viewBox="0 0 178 60" fill="none" xmlns="http://www.w3.org/2000/svg">
<g clip-path="url(#clip0)">
<path d="M163.156 6.53003e-05H14.1249C13.5816 6.53003e-05 13.0449 6.53004e-05 12.5031 0.0030653C12.0496 0.0060653 11.5997 0.0147803 11.1418 0.0221153C10.147 0.033968 9.15459 0.12258 8.17314 0.28718C7.19307 0.455364 6.2437 0.772439 5.35714 1.22768C4.47166 1.68677 3.66258 2.28332 2.95924 2.99567C2.25221 3.70602 1.66284 4.52709 1.2138 5.42731C0.763524 6.32573 0.4513 7.28847 0.287914 8.28229C0.122974 9.27484 0.0342184 10.2788 0.0224435 11.2853C0.00869593 11.7452 0.00724414 12.2066 0 12.6666V47.338C0.00724414 47.8037 0.00869593 48.2549 0.0224435 48.7208C0.034222 49.7272 0.122978 50.7312 0.287914 51.7237C0.450849 52.7181 0.763091 53.6814 1.2138 54.5801C1.66264 55.4774 2.25209 56.2952 2.95924 57.0016C3.65991 57.7171 4.46952 58.314 5.35714 58.7696C6.24369 59.2261 7.19296 59.545 8.17314 59.7158C9.15476 59.8791 10.1471 59.9677 11.1418 59.981C11.5997 59.9912 12.0496 59.9971 12.5031 59.9971C13.0449 60.0001 13.5817 60.0001 14.1249 60.0001H163.156C163.688 60.0001 164.229 60.0001 164.762 59.9971C165.213 59.9971 165.676 59.9912 166.127 59.981C167.12 59.9685 168.111 59.8798 169.09 59.7158C170.074 59.5438 171.026 59.225 171.917 58.7696C172.804 58.3138 173.613 57.7168 174.313 57.0016C175.018 56.2924 175.609 55.4753 176.063 54.5801C176.511 53.6807 176.82 52.7175 176.98 51.7237C177.146 50.731 177.238 49.7273 177.255 48.7208C177.261 48.2549 177.261 47.8037 177.261 47.338C177.273 46.793 177.273 46.2511 177.273 45.6973V14.3043C177.273 13.7549 177.273 13.21 177.261 12.6666C177.261 12.2066 177.261 11.7452 177.255 11.2852C177.238 10.2787 177.146 9.27492 176.98 8.28223C176.819 7.28899 176.51 6.32632 176.063 5.42725C175.149 3.62286 173.699 2.1541 171.917 1.22755C171.026 0.773416 170.073 0.456426 169.09 0.287045C168.111 0.121719 167.12 0.0330769 166.127 0.0219053C165.676 0.0145853 165.213 0.0057953 164.762 0.0028703C164.229 -0.0001297 163.688 -0.0001297 163.156 -0.0001297V6.53003e-05Z" fill="#A6A6A6"/>
<path d="M12.5103 58.6875C12.0589 58.6875 11.6184 58.6817 11.1706 58.6715C10.2429 58.6592 9.31741 58.5775 8.40164 58.4268C7.54774 58.2779 6.72053 58.0009 5.94732 57.605C5.18119 57.2123 4.48242 56.6974 3.87777 56.0801C3.26438 55.47 2.7537 54.7624 2.36597 53.9853C1.97397 53.2032 1.70268 52.3649 1.56156 51.4995C1.40916 50.5697 1.3267 49.6295 1.3149 48.687C1.30551 48.3707 1.29321 47.3174 1.29321 47.3174V12.6665C1.29321 12.6665 1.30631 11.6294 1.31498 11.3247C1.32627 10.3838 1.40825 9.44502 1.56019 8.51663C1.70158 7.64891 1.97308 6.80816 2.36529 6.02348C2.75159 5.24695 3.25943 4.53883 3.86914 3.92656C4.47815 3.30847 5.17916 2.79094 5.94659 2.39285C6.71803 1.99818 7.54367 1.72314 8.39585 1.57694C9.31462 1.42479 10.2434 1.34253 11.1743 1.33085L12.511 1.31254H164.754L166.107 1.33159C167.029 1.34269 167.95 1.42421 168.86 1.57547C169.721 1.7235 170.555 2.00046 171.335 2.39725C172.873 3.19952 174.124 4.46878 174.913 6.02714C175.299 6.8064 175.566 7.6403 175.706 8.50052C175.86 9.43652 175.946 10.3826 175.963 11.3313C175.968 11.7561 175.968 12.2124 175.968 12.6665C175.979 13.229 175.979 13.7644 175.979 14.3042V45.6972C175.979 46.2422 175.979 46.7739 175.968 47.31C175.968 47.7978 175.968 48.2447 175.962 48.7046C175.945 49.6363 175.86 50.5656 175.709 51.4848C175.57 52.3564 175.301 53.2013 174.909 53.9898C174.518 54.7585 174.011 55.4599 173.404 56.0684C172.799 56.6891 172.099 57.2069 171.331 57.6021C170.553 58.0011 169.72 58.2791 168.86 58.4268C167.944 58.5783 167.019 58.66 166.091 58.6715C165.657 58.6817 165.203 58.6875 164.762 58.6875L163.156 58.6905L12.5103 58.6875Z" fill="black"/>
<path d="M36.6929 30.451C36.7089 29.199 37.0373 27.9714 37.6477 26.8825C38.2581 25.7935 39.1306 24.8786 40.184 24.2229C39.5148 23.2551 38.6319 22.4587 37.6056 21.8969C36.5792 21.3351 35.4376 21.0233 34.2714 20.9863C31.7838 20.722 29.3721 22.4936 28.1044 22.4936C26.8122 22.4936 24.8604 21.0126 22.7587 21.0564C21.3992 21.1009 20.0743 21.5011 18.9131 22.2182C17.7518 22.9353 16.7938 23.9448 16.1324 25.1482C13.2674 30.1708 15.4045 37.5524 18.1489 41.6123C19.5221 43.6003 21.1269 45.821 23.2267 45.7423C25.2815 45.656 26.049 44.4155 28.5293 44.4155C30.9866 44.4155 31.7066 45.7423 33.8491 45.6922C36.054 45.6559 37.4432 43.6953 38.7681 41.6885C39.7547 40.2719 40.5139 38.7063 41.0176 37.0497C39.7366 36.5011 38.6434 35.5829 37.8744 34.4094C37.1053 33.236 36.6944 31.8593 36.6929 30.451Z" fill="white"/>
<path d="M32.6461 18.3163C33.8483 16.855 34.4406 14.9767 34.2971 13.0803C32.4604 13.2757 30.7638 14.1645 29.5454 15.5698C28.9496 16.2563 28.4933 17.0549 28.2026 17.9201C27.9119 18.7852 27.7924 19.6999 27.851 20.6118C28.7697 20.6214 29.6786 20.4198 30.5092 20.0222C31.3397 19.6245 32.0704 19.0413 32.6461 18.3163Z" fill="white"/>
<path d="M62.6673 40.7094H55.6551L53.9712 45.744H51.0011L57.6429 27.117H60.7287L67.3705 45.744H64.3498L62.6673 40.7094ZM56.3814 38.3861H61.9396L59.1996 30.2152H59.1229L56.3814 38.3861Z" fill="white"/>
<path d="M81.7145 38.9545C81.7145 43.1747 79.4836 45.8861 76.1172 45.8861C75.2644 45.9313 74.4163 45.7324 73.6699 45.3122C72.9236 44.892 72.3092 44.2675 71.8972 43.5101H71.8335V50.2367H69.0804V32.1635H71.7453V34.4223H71.7959C72.2269 33.6686 72.8517 33.0473 73.6037 32.6245C74.3557 32.2017 75.2068 31.9933 76.0665 32.0214C79.4706 32.0214 81.7145 34.746 81.7145 38.9545ZM78.8847 38.9545C78.8847 36.205 77.4814 34.3974 75.3403 34.3974C73.2368 34.3974 71.8219 36.2431 71.8219 38.9545C71.8219 41.6908 73.2368 43.5233 75.3403 43.5233C77.4814 43.5233 78.8847 41.7289 78.8847 38.9545Z" fill="white"/>
<path d="M96.4765 38.9545C96.4765 43.1747 94.2457 45.8862 90.8793 45.8862C90.0265 45.9313 89.1784 45.7324 88.432 45.3122C87.6857 44.892 87.0713 44.2675 86.6592 43.5102H86.5955V50.2367H83.8425V32.1635H86.5073V34.4223H86.5579C86.9889 33.6686 87.6137 33.0473 88.3657 32.6245C89.1177 32.2018 89.9689 31.9933 90.8286 32.0214C94.2327 32.0214 96.4765 34.746 96.4765 38.9545ZM93.6468 38.9545C93.6468 36.205 92.2435 34.3974 90.1024 34.3974C87.9989 34.3974 86.584 36.2431 86.584 38.9545C86.584 41.6909 87.9989 43.5234 90.1024 43.5234C92.2435 43.5234 93.6468 41.7289 93.6468 38.9545H93.6468Z" fill="white"/>
<path d="M106.233 40.5541C106.437 42.4013 108.209 43.6141 110.631 43.6141C112.952 43.6141 114.621 42.4012 114.621 40.7357C114.621 39.2899 113.614 38.4242 111.23 37.8309L108.846 37.2494C105.468 36.4232 103.9 34.8236 103.9 32.2279C103.9 29.014 106.666 26.8065 110.594 26.8065C114.481 26.8065 117.146 29.014 117.235 32.2279H114.456C114.29 30.369 112.772 29.2469 110.555 29.2469C108.337 29.2469 106.819 30.3822 106.819 32.0345C106.819 33.3514 107.788 34.1263 110.16 34.7195L112.186 35.2234C115.961 36.1272 117.529 37.6624 117.529 40.387C117.529 43.8719 114.788 46.0545 110.427 46.0545C106.347 46.0545 103.593 43.9231 103.415 40.554L106.233 40.5541Z" fill="white"/>
<path d="M123.471 28.9496V32.1635H126.021V34.371H123.471V41.8578C123.471 43.0209 123.981 43.5629 125.103 43.5629C125.405 43.5576 125.708 43.536 126.008 43.4984V45.6928C125.504 45.7881 124.992 45.8313 124.479 45.8217C121.764 45.8217 120.705 44.7889 120.705 42.1551V34.371H118.754V32.1635H120.705V28.9496H123.471Z" fill="white"/>
<path d="M127.498 38.9545C127.498 34.6816 129.984 31.9965 133.859 31.9965C137.748 31.9965 140.222 34.6815 140.222 38.9545C140.222 43.2392 137.761 45.9125 133.859 45.9125C129.959 45.9125 127.498 43.2392 127.498 38.9545ZM137.417 38.9545C137.417 36.0234 136.09 34.2934 133.859 34.2934C131.629 34.2934 130.303 36.0366 130.303 38.9545C130.303 41.8974 131.629 43.6142 133.859 43.6142C136.09 43.6142 137.417 41.8974 137.417 38.9545H137.417Z" fill="white"/>
<path d="M142.492 32.1635H145.118V34.475H145.181C145.359 33.753 145.777 33.115 146.364 32.6682C146.952 32.2214 147.673 31.993 148.407 32.0213C148.725 32.0202 149.041 32.0551 149.351 32.1254V34.7328C148.95 34.6089 148.532 34.552 148.114 34.5643C147.714 34.5479 147.315 34.6193 146.945 34.7736C146.575 34.928 146.242 35.1616 145.969 35.4584C145.697 35.7552 145.491 36.1083 145.366 36.4933C145.241 36.8783 145.2 37.2861 145.245 37.6888V45.744H142.492L142.492 32.1635Z" fill="white"/>
<path d="M162.044 41.7553C161.674 44.2206 159.303 45.9125 156.269 45.9125C152.367 45.9125 149.945 43.2655 149.945 39.019C149.945 34.7592 152.38 31.9965 156.153 31.9965C159.864 31.9965 162.197 34.5776 162.197 38.6952V39.6503H152.724V39.8188C152.681 40.3186 152.742 40.8221 152.906 41.2958C153.069 41.7696 153.33 42.2028 153.671 42.5666C154.012 42.9304 154.426 43.2166 154.885 43.406C155.344 43.5955 155.837 43.6839 156.332 43.6654C156.983 43.7272 157.636 43.5746 158.194 43.2304C158.752 42.8863 159.186 42.3689 159.43 41.7553L162.044 41.7553ZM152.737 37.7021H159.443C159.468 37.2527 159.4 36.803 159.245 36.3811C159.09 35.9593 158.851 35.5745 158.542 35.2509C158.233 34.9272 157.861 34.6717 157.45 34.5004C157.039 34.3291 156.597 34.2456 156.153 34.2553C155.705 34.2526 155.26 34.3398 154.845 34.5119C154.431 34.684 154.054 34.9376 153.736 35.2581C153.418 35.5785 153.167 35.9595 152.995 36.379C152.824 36.7984 152.736 37.2481 152.737 37.7021V37.7021Z" fill="white"/>
<path d="M55.0861 22.0466V14.3613H52.3055V13.0965H59.2338V14.3614H56.4591V22.0467L55.0861 22.0466Z" fill="white"/>
<path d="M59.6578 20.1366C59.6578 18.9207 60.5518 18.2198 62.1389 18.1202L63.9458 18.0147V17.4317C63.9458 16.7184 63.48 16.3155 62.5801 16.3155C61.8452 16.3155 61.336 16.5887 61.1898 17.0663H59.9153C60.0498 15.9061 61.1276 15.162 62.6409 15.162C64.3132 15.162 65.2565 16.005 65.2565 17.4317V22.0467H63.9892V21.0975H63.885C63.6735 21.438 63.3767 21.7156 63.0246 21.9019C62.6726 22.0882 62.2781 22.1766 61.8813 22.158C61.6013 22.1875 61.3182 22.1572 61.0504 22.0692C60.7827 21.9811 60.5361 21.8372 60.3266 21.6468C60.1171 21.4563 59.9494 21.2235 59.8342 20.9634C59.719 20.7033 59.6589 20.4216 59.6578 20.1366ZM63.9458 19.5594V18.9947L62.3168 19.1002C61.3981 19.1624 60.9815 19.4788 60.9815 20.0743C60.9815 20.6822 61.5023 21.036 62.2185 21.036C62.4283 21.0575 62.6403 21.036 62.8418 20.9729C63.0432 20.9098 63.2301 20.8062 63.3913 20.6685C63.5524 20.5307 63.6846 20.3615 63.7798 20.171C63.8751 19.9805 63.9315 19.7725 63.9458 19.5594ZM61.6918 12.0228C61.9716 11.9258 62.2656 11.8777 62.5613 11.8807C63.438 11.8807 64.0065 12.3517 64.0065 13.0965C63.9814 13.4289 63.8556 13.7453 63.6465 14.0027C63.4373 14.2601 63.1549 14.446 62.8376 14.535L62.3342 13.878C62.7335 13.7477 63.0141 13.4811 63.0141 13.2137C63.0141 12.9413 62.7508 12.7427 62.3776 12.7427C62.1424 12.7362 61.9086 12.7806 61.6918 12.8731L61.6918 12.0228Z" fill="white"/>
<path d="M67.1457 13.2949C67.1355 13.1223 67.1768 12.9505 67.2642 12.8019C67.3515 12.6533 67.481 12.5346 67.6357 12.4613C67.7904 12.3881 67.9633 12.3635 68.132 12.3909C68.3006 12.4182 68.4573 12.4962 68.5817 12.6148C68.706 12.7333 68.7924 12.887 68.8295 13.0558C68.8667 13.2246 68.8529 13.4008 68.79 13.5616C68.7271 13.7224 68.6179 13.8604 68.4767 13.9577C68.3354 14.0549 68.1686 14.107 67.9978 14.1072C67.8886 14.1128 67.7794 14.096 67.6768 14.0578C67.5742 14.0197 67.4803 13.9609 67.4007 13.885C67.3211 13.8091 67.2575 13.7177 67.2136 13.6163C67.1698 13.5149 67.1467 13.4056 67.1457 13.2949ZM67.341 15.2922H68.6531V22.0466H67.341V15.2922Z" fill="white"/>
<path d="M77.6416 22.0466H76.2268L73.8195 15.2922H75.2271L76.8879 20.6199H76.9921L78.6456 15.2922H80.0431L77.6416 22.0466Z" fill="white"/>
<path d="M86.9496 20.2229C86.7707 20.8402 86.3832 21.3742 85.8548 21.7314C85.3264 22.0886 84.6907 22.2464 84.0591 22.177C83.6196 22.1887 83.1828 22.1035 82.7792 21.9272C82.3755 21.7509 82.0145 21.4878 81.7213 21.1561C81.4281 20.8244 81.2097 20.432 81.0813 20.0063C80.9529 19.5806 80.9175 19.1316 80.9776 18.6907C80.9191 18.2483 80.9551 17.7984 81.0832 17.3714C81.2114 16.9444 81.4286 16.5503 81.7202 16.2157C82.0119 15.8811 82.3711 15.6138 82.7736 15.432C83.1762 15.2502 83.6126 15.1581 84.0533 15.1619C85.9094 15.1619 87.0291 16.4459 87.0291 18.5669V19.032H82.3187V19.1067C82.2981 19.3546 82.3288 19.6041 82.409 19.8392C82.4892 20.0743 82.617 20.2899 82.7843 20.4721C82.9516 20.6543 83.1546 20.799 83.3803 20.8971C83.6061 20.9952 83.8496 21.0445 84.0952 21.0417C84.4102 21.08 84.7292 21.0226 85.0118 20.8768C85.2944 20.731 85.5278 20.5033 85.6823 20.2229L86.9496 20.2229ZM86.4852 14.3679H85.1123L84.101 13.1023H84.0041L82.9929 14.3679H81.6214L83.3357 12.315H84.7694L86.4852 14.3679ZM82.3187 18.0461H85.688C85.7046 17.8195 85.6742 17.5918 85.5987 17.3777C85.5232 17.1636 85.4044 16.9679 85.2497 16.8031C85.0951 16.6383 84.9081 16.5081 84.7008 16.4208C84.4935 16.3336 84.2705 16.2912 84.046 16.2964C83.8183 16.2935 83.5924 16.3368 83.3815 16.4237C83.1706 16.5106 82.979 16.6394 82.818 16.8025C82.657 16.9655 82.5299 17.1596 82.4441 17.3732C82.3584 17.5868 82.3157 17.8156 82.3187 18.0461ZM85.6823 12.1472L84.3165 10.1997H85.688L86.8583 12.1472H85.6823Z" fill="white"/>
<path d="M94.1977 13.6106V15.323H95.6429V16.4458H94.1977V19.919C94.1977 20.6265 94.4856 20.9363 95.1409 20.9363C95.3087 20.9358 95.4763 20.9255 95.6429 20.9055V22.0159C95.4065 22.0588 95.167 22.0816 94.9268 22.084C93.4628 22.084 92.8797 21.5625 92.8797 20.2603V16.4458H91.8207V15.323H92.8797V13.6106H94.1977Z" fill="white"/>
<path d="M97.3812 15.2923H98.6485V16.3279H98.7469C98.8887 15.9684 99.1395 15.6636 99.4631 15.4574C99.7867 15.2512 100.166 15.1542 100.548 15.1802C100.745 15.1775 100.942 15.1962 101.135 15.2359V16.5514C100.894 16.4991 100.647 16.4721 100.4 16.4708C100.183 16.451 99.9645 16.4775 99.758 16.5485C99.5516 16.6195 99.3621 16.7334 99.2018 16.8829C99.0414 17.0325 98.9137 17.2143 98.8269 17.4168C98.7401 17.6193 98.6961 17.8379 98.6977 18.0587V22.0467H97.3812L97.3812 15.2923Z" fill="white"/>
<path d="M108.059 20.2229C107.88 20.8402 107.493 21.3742 106.964 21.7315C106.436 22.0887 105.8 22.2464 105.169 22.177C104.729 22.1888 104.292 22.1036 103.889 21.9273C103.485 21.751 103.124 21.4878 102.831 21.1561C102.538 20.8244 102.319 20.4321 102.191 20.0063C102.062 19.5806 102.027 19.1317 102.087 18.6907C102.029 18.2484 102.065 17.7985 102.193 17.3715C102.321 16.9445 102.538 16.5503 102.83 16.2157C103.121 15.8811 103.481 15.6138 103.883 15.432C104.286 15.2502 104.722 15.1581 105.163 15.1619C107.019 15.1619 108.139 16.4459 108.139 18.5669V19.032H103.428V19.1067C103.408 19.3546 103.438 19.6041 103.519 19.8392C103.599 20.0744 103.727 20.2899 103.894 20.4721C104.061 20.6543 104.264 20.7991 104.49 20.8972C104.716 20.9953 104.959 21.0445 105.205 21.0417C105.52 21.08 105.839 21.0226 106.121 20.8768C106.404 20.731 106.637 20.5034 106.792 20.2229L108.059 20.2229ZM107.587 14.368H106.235L105.21 13.0093H105.114L104.091 14.368H102.731L104.445 12.222H105.879L107.587 14.368ZM103.428 18.0462H106.798C106.814 17.8195 106.784 17.5918 106.708 17.3777C106.633 17.1636 106.514 16.9679 106.359 16.8031C106.205 16.6383 106.018 16.5081 105.81 16.4209C105.603 16.3336 105.38 16.2912 105.156 16.2964C104.928 16.2935 104.702 16.3368 104.491 16.4237C104.28 16.5106 104.088 16.6394 103.927 16.8025C103.766 16.9656 103.639 17.1596 103.554 17.3732C103.468 17.5868 103.425 17.8156 103.428 18.0462Z" fill="white"/>
<path d="M109.907 15.2922H111.174V16.3651H111.272C111.439 15.9798 111.721 15.6567 112.078 15.441C112.434 15.2253 112.849 15.1277 113.263 15.1618C113.588 15.1371 113.914 15.1866 114.217 15.3068C114.52 15.4269 114.792 15.6146 115.014 15.8558C115.236 16.0971 115.401 16.3858 115.498 16.7005C115.594 17.0152 115.62 17.3479 115.572 17.674V22.0465H114.256V18.0087C114.256 16.9233 113.79 16.3835 112.816 16.3835C112.596 16.3731 112.376 16.411 112.171 16.4948C111.967 16.5785 111.782 16.7061 111.631 16.8686C111.48 17.0312 111.365 17.225 111.295 17.4367C111.224 17.6484 111.2 17.873 111.223 18.0951V22.0465H109.907V15.2922Z" fill="white"/>
</g>
<defs>
<clipPath id="clip0">
<rect width="177.273" height="60" fill="white"/>
</clipPath>
</defs>
</svg>
